<?xml version="1.0" encoding="UTF-8"?>
<svg xmlns="http://www.w3.org/2000/svg" width="1500.0" height="1000.0" viewBox="0.0 0.0 1500.0 1000.0">
  <rect x="0.0" y="0.0" width="1500.0" height="1000.0" fill="white"/>
  <g transform="translate(0,1000.0) scale(1,-1)">
    <path d="M 0.000 0.000 L 1500.000 0.000 L 1500.000 220.000 L 1350.000 260.000 L 1500.000 300.000 L 1500.000 1000.000 L 900.000 1000.000 L 850.000 920.000 L 800.000 1000.000 L 0.000 1000.000 L 0.000 0.000 Z " fill="#f0f0f0" stroke="#333" stroke-width="1"/>
    <path d="M 104.254 131.760 L 8.991 76.760 L 42.531 51.668 L 111.623 8.997 L 109.215 90.168 L 104.254 131.760 Z " fill="#6baed6" fill-opacity="0.85" stroke="#111" stroke-width="0.8">
      <title>pent_small | θ=210.0° | mirror=false</title>
    </path>
    <path d="M 119.557 49.041 L 232.320 7.998 L 218.674 87.457 L 181.086 101.138 L 119.557 49.041 Z " fill="#74c476" fill-opacity="0.85" stroke="#111" stroke-width="0.8">
      <title>trap_small | θ=340.0° | mirror=false</title>
    </path>
    <path d="M 238.216 158.347 L 292.939 7.996 L 349.320 28.517 L 294.597 178.868 L 238.216 158.347 Z " fill="#fd8d3c" fill-opacity="0.85" stroke="#111" stroke-width="0.8">
      <title>bar_wide | θ=290.0° | mirror=false</title>
    </path>
    <path d="M 473.393 97.193 L 407.359 126.167 L 355.216 76.356 L 428.197 7.990 L 473.393 97.193 Z " fill="#9e9ac8" fill-opacity="0.85" stroke="#111" stroke-width="0.8">
      <title>kite | θ=190.0° | mirror=false</title>
    </path>
    <path d="M 479.277 87.991 L 617.841 7.991 L 647.841 59.953 L 509.277 139.953 L 479.277 87.991 Z " fill="#fdd0a2" fill-opacity="0.85" stroke="#111" stroke-width="0.8">
      <title>bar_wide | θ=330.0° | mirror=false</title>
    </path>
    <path d="M 754.333 8.359 L 694.333 112.282 L 653.711 42.641 L 673.711 8.000 L 754.333 8.359 Z " fill="#a1d99b" fill-opacity="0.85" stroke="#111" stroke-width="0.8">
      <title>trap_small | θ=120.0° | mirror=false</title>
    </path>
    <path d="M 790.212 8.000 L 850.212 8.000 L 880.212 48.000 L 850.212 88.000 L 790.212 88.000 L 760.212 48.000 L 790.212 8.000 Z " fill="#9ecae1" fill-opacity="0.85" stroke="#111" stroke-width="0.8">
      <title>hex_stub | θ=0.0° | mirror=false</title>
    </path>
    <path d="M 1010.149 140.552 L 934.973 167.914 L 887.090 36.357 L 962.266 8.995 L 1010.149 140.552 Z " fill="#fdae6b" fill-opacity="0.85" stroke="#111" stroke-width="0.8">
      <title>r_tall | θ=160.0° | mirror=false</title>
    </path>
    <path d="M 177.466 213.410 L 117.466 109.487 L 198.088 109.128 L 218.088 143.769 L 177.466 213.410 Z " fill="#6baed6" fill-opacity="0.85" stroke="#111" stroke-width="0.8">
      <title>trap_small | θ=240.0° | mirror=false</title>
    </path>
    <path d="M 7.990 225.581 L 31.283 138.647 L 96.910 202.820 L 7.990 225.581 Z " fill="#74c476" fill-opacity="0.85" stroke="#111" stroke-width="0.8">
      <title>tri_small | θ=285.0° | mirror=false</title>
    </path>
    <path d="M 1158.465 36.284 L 1073.612 121.137 L 1017.044 64.569 L 1073.612 8.000 L 1101.897 36.284 L 1130.181 8.000 L 1158.465 36.284 Z " fill="#fd8d3c" fill-opacity="0.85" stroke="#111" stroke-width="0.8">
      <title>l_small | θ=135.0° | mirror=false</title>
    </path>
    <path d="M 1342.741 46.963 L 1186.857 136.963 L 1164.357 97.991 L 1320.241 7.991 L 1342.741 46.963 Z " fill="#9e9ac8" fill-opacity="0.85" stroke="#111" stroke-width="0.8">
      <title>bar_long | θ=150.0° | mirror=false</title>
    </path>
    <path d="M 748.289 89.556 L 817.571 129.556 L 747.571 250.800 L 678.289 210.800 L 748.289 89.556 Z " fill="#fdd0a2" fill-opacity="0.85" stroke="#111" stroke-width="0.8">
      <title>r_tall | θ=30.0° | mirror=false</title>
    </path>
    <path d="M 391.680 231.195 L 353.113 185.233 L 364.471 136.540 L 414.396 133.810 L 452.964 179.772 L 441.605 228.465 L 391.680 231.195 Z " fill="#a1d99b" fill-opacity="0.85" stroke="#111" stroke-width="0.8">
      <title>hex_stub | θ=230.0° | mirror=false</title>
    </path>
    <path d="M 223.967 219.293 L 293.967 219.293 L 293.967 309.293 L 223.967 309.293 L 223.967 219.293 Z " fill="#9ecae1" fill-opacity="0.85" stroke="#111" stroke-width="0.8">
      <title>r_small | θ=0.0° | mirror=false</title>
    </path>
    <path d="M 479.270 216.315 L 549.977 132.051 L 611.261 183.474 L 540.554 267.738 L 479.270 216.315 Z " fill="#fdae6b" fill-opacity="0.85" stroke="#111" stroke-width="0.8">
      <title>r_medium | θ=310.0° | mirror=false</title>
    </path>
    <path d="M 115.370 242.576 L 202.303 219.282 L 179.542 308.203 L 115.370 242.576 Z " fill="#6baed6" fill-opacity="0.85" stroke="#111" stroke-width="0.8">
      <title>tri_small | θ=345.0° | mirror=false</title>
    </path>
    <path d="M 1428.416 160.764 L 1349.631 146.872 L 1373.942 8.999 L 1452.727 22.891 L 1428.416 160.764 Z " fill="#74c476" fill-opacity="0.85" stroke="#111" stroke-width="0.8">
      <title>r_tall | θ=190.0° | mirror=false</title>
    </path>
    <path d="M 1120.557 207.071 L 1059.935 242.071 L 1014.935 164.129 L 1075.557 129.129 L 1120.557 207.071 Z " fill="#fd8d3c" fill-opacity="0.85" stroke="#111" stroke-width="0.8">
      <title>r_small | θ=150.0° | mirror=false</title>
    </path>
    <path d="M 1315.029 168.864 L 1301.137 247.648 L 1163.264 223.337 L 1177.156 144.553 L 1315.029 168.864 Z " fill="#9e9ac8" fill-opacity="0.85" stroke="#111" stroke-width="0.8">
      <title>r_tall | θ=100.0° | mirror=false</title>
    </path>
    <path d="M 87.979 231.471 L 127.979 291.471 L 87.979 351.471 L 7.979 291.471 L 87.979 231.471 Z " fill="#fdd0a2" fill-opacity="0.85" stroke="#111" stroke-width="0.8">
      <title>kite | θ=90.0° | mirror=false</title>
    </path>
    <path d="M 324.458 217.184 L 480.343 307.184 L 457.843 346.155 L 301.958 256.155 L 324.458 217.184 Z " fill="#a1d99b" fill-opacity="0.85" stroke="#111" stroke-width="0.8">
      <title>bar_long | θ=30.0° | mirror=false</title>
    </path>
    <path d="M 991.233 296.293 L 884.981 267.823 L 910.884 234.906 L 966.577 175.807 L 985.260 254.835 L 991.233 296.293 Z " fill="#9ecae1" fill-opacity="0.85" stroke="#111" stroke-width="0.8">
      <title>pent_small | θ=195.0° | mirror=false</title>
    </path>
    <path d="M 529.841 371.903 L 560.900 255.991 L 638.174 276.697 L 617.468 353.971 L 578.831 343.618 L 568.478 382.255 L 529.841 371.903 Z " fill="#fdae6b" fill-opacity="0.85" stroke="#111" stroke-width="0.8">
      <title>l_small | θ=285.0° | mirror=false</title>
    </path>
    <path d="M 644.050 433.200 L 659.738 253.885 L 704.567 257.807 L 688.879 437.122 L 644.050 433.200 Z " fill="#6baed6" fill-opacity="0.85" stroke="#111" stroke-width="0.8">
      <title>bar_long | θ=275.0° | mirror=false</title>
    </path>
    <path d="M 127.622 314.094 L 219.547 391.229 L 143.910 419.140 L 113.268 393.429 L 127.622 314.094 Z " fill="#74c476" fill-opacity="0.85" stroke="#111" stroke-width="0.8">
      <title>trap_small | θ=40.0° | mirror=false</title>
    </path>
    <path d="M 395.121 439.466 L 299.858 384.466 L 339.858 315.184 L 435.121 370.184 L 395.121 439.466 Z " fill="#fd8d3c" fill-opacity="0.85" stroke="#111" stroke-width="0.8">
      <title>r_medium | θ=210.0° | mirror=false</title>
    </path>
    <path d="M 1156.758 297.236 L 1052.835 357.236 L 1012.835 287.954 L 1082.117 247.954 L 1102.117 282.595 L 1136.758 262.595 L 1156.758 297.236 Z " fill="#9e9ac8" fill-opacity="0.85" stroke="#111" stroke-width="0.8">
      <title>l_small | θ=150.0° | mirror=false</title>
    </path>
    <path d="M 737.512 390.671 L 713.201 252.798 L 843.533 300.897 L 737.512 390.671 Z " fill="#fdd0a2" fill-opacity="0.85" stroke="#111" stroke-width="0.8">
      <title>tri_big | θ=260.0° | mirror=false</title>
    </path>
    <path d="M 105.885 371.260 L 86.784 479.588 L 7.999 465.697 L 27.100 357.368 L 105.885 371.260 Z " fill="#a1d99b" fill-opacity="0.85" stroke="#111" stroke-width="0.8">
      <title>r_medium | θ=100.0° | mirror=false</title>
    </path>
    <path d="M 1258.565 326.747 L 1199.476 337.166 L 1162.986 302.983 L 1185.584 258.381 L 1244.673 247.962 L 1281.163 282.145 L 1258.565 326.747 Z " fill="#9ecae1" fill-opacity="0.85" stroke="#111" stroke-width="0.8">
      <title>hex_stub | θ=170.0° | mirror=false</title>
    </path>
    <path d="M 995.032 366.823 L 945.535 416.320 L 881.895 352.681 L 931.393 303.183 L 995.032 366.823 Z " fill="#fdae6b" fill-opacity="0.85" stroke="#111" stroke-width="0.8">
      <title>r_small | θ=135.0° | mirror=false</title>
    </path>
    <path d="M 1284.953 475.617 L 1209.778 502.979 L 1161.895 371.422 L 1237.070 344.061 L 1284.953 475.617 Z " fill="#6baed6" fill-opacity="0.85" stroke="#111" stroke-width="0.8">
      <title>r_tall | θ=160.0° | mirror=false</title>
    </path>
    <path d="M 225.435 545.031 L 225.435 425.031 L 305.435 425.031 L 305.435 505.031 L 265.435 505.031 L 265.435 545.031 L 225.435 545.031 Z " fill="#74c476" fill-opacity="0.85" stroke="#111" stroke-width="0.8">
      <title>l_small | θ=270.0° | mirror=false</title>
    </path>
    <path d="M 378.896 456.852 L 482.262 419.230 L 509.624 494.405 L 406.258 532.027 L 378.896 456.852 Z " fill="#fd8d3c" fill-opacity="0.85" stroke="#111" stroke-width="0.8">
      <title>r_medium | θ=340.0° | mirror=false</title>
    </path>
    <path d="M 130.271 547.251 L 111.169 438.922 L 189.954 425.030 L 209.055 533.359 L 130.271 547.251 Z " fill="#9e9ac8" fill-opacity="0.85" stroke="#111" stroke-width="0.8">
      <title>r_medium | θ=260.0° | mirror=false</title>
    </path>
    <path d="M 847.796 398.562 L 799.913 530.119 L 711.091 423.298 L 847.796 398.562 Z " fill="#fdd0a2" fill-opacity="0.85" stroke="#111" stroke-width="0.8">
      <title>tri_big | θ=110.0° | mirror=false</title>
    </path>
    <path d="M 515.512 472.125 L 610.774 417.125 L 650.774 486.407 L 555.512 541.407 L 515.512 472.125 Z " fill="#a1d99b" fill-opacity="0.85" stroke="#111" stroke-width="0.8">
      <title>r_medium | θ=330.0° | mirror=false</title>
    </path>
    <path d="M 1012.650 468.551 L 972.650 537.833 L 851.407 467.833 L 891.407 398.551 L 1012.650 468.551 Z " fill="#9ecae1" fill-opacity="0.85" stroke="#111" stroke-width="0.8">
      <title>r_tall | θ=120.0° | mirror=false</title>
    </path>
    <path d="M 1358.761 340.957 L 1389.819 456.868 L 1312.545 477.573 L 1291.840 400.299 L 1330.477 389.947 L 1320.124 351.309 L 1358.761 340.957 Z " fill="#fdae6b" fill-opacity="0.85" stroke="#111" stroke-width="0.8">
      <title>l_small | θ=75.0° | mirror=false</title>
    </path>
    <path d="M 1010.735 423.740 L 1045.735 363.119 L 1123.678 408.119 L 1088.678 468.740 L 1010.735 423.740 Z " fill="#6baed6" fill-opacity="0.85" stroke="#111" stroke-width="0.8">
      <title>r_small | θ=300.0° | mirror=false</title>
    </path>
    <path d="M 9.000 566.369 L 86.782 488.587 L 102.338 527.478 L 125.673 605.260 L 47.891 581.926 L 9.000 566.369 Z " fill="#74c476" fill-opacity="0.85" stroke="#111" stroke-width="0.8">
      <title>pent_small | θ=315.0° | mirror=false</title>
    </path>
    <path d="M 399.385 548.342 L 458.473 537.923 L 494.963 572.106 L 472.365 616.708 L 413.277 627.127 L 376.786 592.944 L 399.385 548.342 Z " fill="#fd8d3c" fill-opacity="0.85" stroke="#111" stroke-width="0.8">
      <title>hex_stub | θ=350.0° | mirror=false</title>
    </path>
    <path d="M 310.260 550.923 L 328.377 618.537 L 241.444 641.831 L 223.327 574.216 L 310.260 550.923 Z " fill="#9e9ac8" fill-opacity="0.85" stroke="#111" stroke-width="0.8">
      <title>r_small | θ=75.0° | mirror=false</title>
    </path>
    <path d="M 622.334 538.916 L 593.864 645.168 L 560.946 619.265 L 501.847 563.572 L 580.875 544.889 L 622.334 538.916 Z " fill="#fdd0a2" fill-opacity="0.85" stroke="#111" stroke-width="0.8">
      <title>pent_small | θ=105.0° | mirror=false</title>
    </path>
    <path d="M 709.002 648.004 L 709.002 538.004 L 747.502 554.504 L 819.002 593.004 L 747.502 631.504 L 709.002 648.004 Z " fill="#a1d99b" fill-opacity="0.85" stroke="#111" stroke-width="0.8">
      <title>pent_small | θ=270.0° | mirror=false</title>
    </path>
    <path d="M 1024.164 474.623 L 1178.712 516.034 L 1163.183 573.990 L 1008.635 532.579 L 1024.164 474.623 Z " fill="#9ecae1" fill-opacity="0.85" stroke="#111" stroke-width="0.8">
      <title>bar_wide | θ=15.0° | mirror=false</title>
    </path>
    <path d="M 939.861 581.645 L 904.861 642.267 L 826.919 597.267 L 861.919 536.645 L 939.861 581.645 Z " fill="#fdae6b" fill-opacity="0.85" stroke="#111" stroke-width="0.8">
      <title>r_small | θ=120.0° | mirror=false</title>
    </path>
    <path d="M 1292.829 572.139 L 1344.252 510.855 L 1451.499 600.846 L 1400.076 662.129 L 1292.829 572.139 Z " fill="#6baed6" fill-opacity="0.85" stroke="#111" stroke-width="0.8">
      <title>r_tall | θ=310.0° | mirror=false</title>
    </path>
    <path d="M 176.556 664.090 L 37.991 744.090 L 7.991 692.129 L 146.556 612.129 L 176.556 664.090 Z " fill="#74c476" fill-opacity="0.85" stroke="#111" stroke-width="0.8">
      <title>bar_wide | θ=150.0° | mirror=false</title>
    </path>
    <path d="M 1482.644 427.785 L 1395.710 404.491 L 1459.883 338.864 L 1482.644 427.785 Z " fill="#fd8d3c" fill-opacity="0.85" stroke="#111" stroke-width="0.8">
      <title>tri_small | θ=195.0° | mirror=false</title>
    </path>
    <path d="M 1105.403 625.525 L 1053.980 686.809 L 946.734 596.818 L 998.157 535.535 L 1105.403 625.525 Z " fill="#9e9ac8" fill-opacity="0.85" stroke="#111" stroke-width="0.8">
      <title>r_tall | θ=130.0° | mirror=false</title>
    </path>
    <path d="M 374.691 668.018 L 435.313 633.018 L 480.313 710.960 L 419.691 745.960 L 374.691 668.018 Z " fill="#fdd0a2" fill-opacity="0.85" stroke="#111" stroke-width="0.8">
      <title>r_small | θ=330.0° | mirror=false</title>
    </path>
    <path d="M 659.462 667.787 L 512.015 771.031 L 486.204 734.169 L 633.651 630.925 L 659.462 667.787 Z " fill="#a1d99b" fill-opacity="0.85" stroke="#111" stroke-width="0.8">
      <title>bar_long | θ=145.0° | mirror=false</title>
    </path>
    <path d="M 296.571 338.837 L 232.931 402.477 L 208.183 314.089 L 296.571 338.837 Z " fill="#9ecae1" fill-opacity="0.85" stroke="#111" stroke-width="0.8">
      <title>tri_small | θ=135.0° | mirror=false</title>
    </path>
    <path d="M 825.828 649.152 L 947.071 719.152 L 826.449 788.076 L 825.828 649.152 Z " fill="#fdae6b" fill-opacity="0.85" stroke="#111" stroke-width="0.8">
      <title>tri_big | θ=30.0° | mirror=false</title>
    </path>
    <path d="M 1154.360 691.811 L 1125.890 585.559 L 1167.348 591.532 L 1246.377 610.215 L 1187.277 665.909 L 1154.360 691.811 Z " fill="#6baed6" fill-opacity="0.85" stroke="#111" stroke-width="0.8">
      <title>pent_small | θ=255.0° | mirror=false</title>
    </path>
    <path d="M 258.854 778.447 L 221.231 675.080 L 296.407 647.719 L 334.029 751.085 L 258.854 778.447 Z " fill="#74c476" fill-opacity="0.85" stroke="#111" stroke-width="0.8">
      <title>r_medium | θ=250.0° | mirror=false</title>
    </path>
    <path d="M 480.925 785.343 L 480.925 865.343 L 340.925 865.343 L 340.925 785.343 L 480.925 785.343 Z " fill="#fd8d3c" fill-opacity="0.85" stroke="#111" stroke-width="0.8">
      <title>r_tall | θ=90.0° | mirror=false</title>
    </path>
    <path d="M 965.744 648.150 L 1069.667 708.150 L 1029.667 777.432 L 960.385 737.432 L 980.385 702.791 L 945.744 682.791 L 965.744 648.150 Z " fill="#9e9ac8" fill-opacity="0.85" stroke="#111" stroke-width="0.8">
      <title>l_small | θ=30.0° | mirror=false</title>
    </path>
    <path d="M 113.042 773.267 L 94.925 840.882 L 7.991 817.588 L 26.109 749.973 L 113.042 773.267 Z " fill="#fdd0a2" fill-opacity="0.85" stroke="#111" stroke-width="0.8">
      <title>r_small | θ=105.0° | mirror=false</title>
    </path>
    <path d="M 740.223 763.030 L 630.223 763.030 L 646.723 724.530 L 685.223 653.030 L 723.723 724.530 L 740.223 763.030 Z " fill="#a1d99b" fill-opacity="0.85" stroke="#111" stroke-width="0.8">
      <title>pent_small | θ=180.0° | mirror=false</title>
    </path>
    <path d="M 915.361 173.391 L 847.746 191.509 L 824.452 104.575 L 892.067 86.458 L 915.361 173.391 Z " fill="#9ecae1" fill-opacity="0.85" stroke="#111" stroke-width="0.8">
      <title>r_small | θ=165.0° | mirror=false</title>
    </path>
    <path d="M 212.247 854.319 L 120.322 777.184 L 195.958 749.273 L 226.600 774.984 L 212.247 854.319 Z " fill="#fdae6b" fill-opacity="0.85" stroke="#111" stroke-width="0.8">
      <title>trap_small | θ=220.0° | mirror=false</title>
    </path>
    <path d="M 1333.274 698.697 L 1333.274 808.697 L 1253.274 808.697 L 1253.274 698.697 L 1333.274 698.697 Z " fill="#6baed6" fill-opacity="0.85" stroke="#111" stroke-width="0.8">
      <title>r_medium | θ=90.0° | mirror=false</title>
    </path>
    <path d="M 528.091 853.814 L 588.091 749.891 L 657.373 789.891 L 617.373 859.173 L 582.732 839.173 L 562.732 873.814 L 528.091 853.814 Z " fill="#74c476" fill-opacity="0.85" stroke="#111" stroke-width="0.8">
      <title>l_small | θ=300.0° | mirror=false</title>
    </path>
    <path d="M 221.218 877.655 L 229.143 805.981 L 298.352 785.730 L 321.069 883.115 L 221.218 877.655 Z " fill="#fd8d3c" fill-opacity="0.85" stroke="#111" stroke-width="0.8">
      <title>kite | θ=310.0° | mirror=false</title>
    </path>
    <path d="M 1113.284 772.471 L 1191.066 694.689 L 1206.622 733.580 L 1229.957 811.362 L 1152.175 788.028 L 1113.284 772.471 Z " fill="#9e9ac8" fill-opacity="0.85" stroke="#111" stroke-width="0.8">
      <title>pent_small | θ=315.0° | mirror=false</title>
    </path>
    <path d="M 665.720 776.926 L 769.643 836.926 L 700.002 877.548 L 665.361 857.548 L 665.720 776.926 Z " fill="#fdd0a2" fill-opacity="0.85" stroke="#111" stroke-width="0.8">
      <title>trap_small | θ=30.0° | mirror=false</title>
    </path>
    <path d="M 1010.566 783.315 L 1041.624 899.226 L 964.350 919.931 L 943.644 842.657 L 982.281 832.305 L 971.929 793.668 L 1010.566 783.315 Z " fill="#a1d99b" fill-opacity="0.85" stroke="#111" stroke-width="0.8">
      <title>l_small | θ=75.0° | mirror=false</title>
    </path>
    <path d="M 118.934 846.773 L 188.934 846.773 L 188.934 936.773 L 118.934 936.773 L 118.934 846.773 Z " fill="#9ecae1" fill-opacity="0.85" stroke="#111" stroke-width="0.8">
      <title>r_small | θ=0.0° | mirror=false</title>
    </path>
    <path d="M 823.719 850.957 L 918.982 795.957 L 923.942 837.549 L 926.350 918.720 L 857.258 876.049 L 823.719 850.957 Z " fill="#fdae6b" fill-opacity="0.85" stroke="#111" stroke-width="0.8">
      <title>pent_small | θ=330.0° | mirror=false</title>
    </path>
    <path d="M 1251.159 930.284 L 1389.047 814.582 L 1417.972 849.054 L 1280.084 964.756 L 1251.159 930.284 Z " fill="#6baed6" fill-opacity="0.85" stroke="#111" stroke-width="0.8">
      <title>bar_long | θ=320.0° | mirror=false</title>
    </path>
    <path d="M 707.591 443.006 L 730.885 529.939 L 641.964 507.178 L 707.591 443.006 Z " fill="#74c476" fill-opacity="0.85" stroke="#111" stroke-width="0.8">
      <title>tri_small | θ=75.0° | mirror=false</title>
    </path>
    <path d="M 1167.513 861.202 L 1107.513 901.202 L 1047.513 861.202 L 1107.513 781.202 L 1167.513 861.202 Z " fill="#fd8d3c" fill-opacity="0.85" stroke="#111" stroke-width="0.8">
      <title>kite | θ=180.0° | mirror=false</title>
    </path>
    <path d="M 645.393 959.114 L 487.824 931.330 L 498.243 872.242 L 655.812 900.026 L 645.393 959.114 Z " fill="#9e9ac8" fill-opacity="0.85" stroke="#111" stroke-width="0.8">
      <title>bar_wide | θ=190.0° | mirror=false</title>
    </path>
    <path d="M 1445.698 433.661 L 1486.741 546.424 L 1407.281 532.778 L 1393.601 495.190 L 1445.698 433.661 Z " fill="#fdd0a2" fill-opacity="0.85" stroke="#111" stroke-width="0.8">
      <title>trap_small | θ=70.0° | mirror=false</title>
    </path>
    <path d="M 105.885 860.664 L 86.784 968.993 L 7.999 955.101 L 27.100 846.772 L 105.885 860.664 Z " fill="#a1d99b" fill-opacity="0.85" stroke="#111" stroke-width="0.8">
      <title>r_medium | θ=100.0° | mirror=false</title>
    </path>
    <path d="M 750.898 735.274 L 705.898 657.332 L 797.680 656.303 L 750.898 735.274 Z " fill="#9ecae1" fill-opacity="0.85" stroke="#111" stroke-width="0.8">
      <title>tri_small | θ=240.0° | mirror=false</title>
    </path>
    <path d="M 296.252 988.489 L 227.043 968.238 L 219.118 896.564 L 318.969 891.103 L 296.252 988.489 Z " fill="#fdae6b" fill-opacity="0.85" stroke="#111" stroke-width="0.8">
      <title>kite | θ=230.0° | mirror=false</title>
    </path>
    <path d="M 406.541 978.213 L 347.452 967.794 L 324.854 923.192 L 361.344 889.009 L 420.433 899.428 L 443.031 944.030 L 406.541 978.213 Z " fill="#6baed6" fill-opacity="0.85" stroke="#111" stroke-width="0.8">
      <title>hex_stub | θ=190.0° | mirror=false</title>
    </path>
    <path d="M 661.696 915.139 L 739.638 870.139 L 740.667 961.921 L 661.696 915.139 Z " fill="#74c476" fill-opacity="0.85" stroke="#111" stroke-width="0.8">
      <title>tri_small | θ=330.0° | mirror=false</title>
    </path>
    <path d="M 1207.515 985.823 L 1047.515 985.823 L 1047.515 925.823 L 1207.515 925.823 L 1207.515 985.823 Z " fill="#fd8d3c" fill-opacity="0.85" stroke="#111" stroke-width="0.8">
      <title>bar_wide | θ=180.0° | mirror=false</title>
    </path>
    <path d="M 1253.264 669.399 L 1276.557 582.466 L 1342.184 646.638 L 1253.264 669.399 Z " fill="#9e9ac8" fill-opacity="0.85" stroke="#111" stroke-width="0.8">
      <title>tri_small | θ=285.0° | mirror=false</title>
    </path>
    <path d="M 1417.357 675.283 L 1472.357 770.546 L 1403.074 810.546 L 1348.074 715.283 L 1417.357 675.283 Z " fill="#fdd0a2" fill-opacity="0.85" stroke="#111" stroke-width="0.8">
      <title>r_medium | θ=60.0° | mirror=false</title>
    </path>
    <path d="M 1324.387 142.850 L 1428.310 202.850 L 1358.669 243.471 L 1324.028 223.471 L 1324.387 142.850 Z " fill="#a1d99b" fill-opacity="0.85" stroke="#111" stroke-width="0.8">
      <title>trap_small | θ=30.0° | mirror=false</title>
    </path>
    <path d="M 749.695 868.039 L 827.637 913.039 L 748.666 959.821 L 749.695 868.039 Z " fill="#9ecae1" fill-opacity="0.85" stroke="#111" stroke-width="0.8">
      <title>tri_small | θ=30.0° | mirror=false</title>
    </path>
  </g>
</svg>
