<?xml version="1.0" encoding="UTF-8"?>
<svg xmlns="http://www.w3.org/2000/svg" width="1500.0" height="1000.0" viewBox="0.0 0.0 1500.0 1000.0">
  <rect x="0.0" y="0.0" width="1500.0" height="1000.0" fill="white"/>
  <g transform="translate(0,1000.0) scale(1,-1)">
    <path d="M 0.000 0.000 L 1500.000 0.000 L 1500.000 220.000 L 1350.000 260.000 L 1500.000 300.000 L 1500.000 1000.000 L 900.000 1000.000 L 850.000 920.000 L 800.000 1000.000 L 0.000 1000.000 L 0.000 0.000 Z " fill="#f0f0f0" stroke="#333" stroke-width="1"/>
    <path d="M 18.344 7.991 L 134.255 39.050 L 113.550 116.324 L 36.276 95.618 L 46.628 56.981 L 7.991 46.628 L 18.344 7.991 Z " fill="#6baed6" fill-opacity="0.85" stroke="#111" stroke-width="0.8">
      <title>l_small | θ=15.0° | mirror=false</title>
    </path>
    <path d="M 157.224 7.991 L 273.135 39.050 L 252.430 116.324 L 175.156 95.618 L 185.508 56.981 L 146.871 46.628 L 157.224 7.991 Z " fill="#74c476" fill-opacity="0.85" stroke="#111" stroke-width="0.8">
      <title>l_small | θ=15.0° | mirror=false</title>
    </path>
    <path d="M 296.104 7.991 L 412.015 39.050 L 391.310 116.324 L 314.036 95.618 L 324.388 56.981 L 285.751 46.628 L 296.104 7.991 Z " fill="#fd8d3c" fill-opacity="0.85" stroke="#111" stroke-width="0.8">
      <title>l_small | θ=15.0° | mirror=false</title>
    </path>
    <path d="M 434.984 7.991 L 550.895 39.050 L 530.190 116.324 L 452.916 95.618 L 463.268 56.981 L 424.631 46.628 L 434.984 7.991 Z " fill="#9e9ac8" fill-opacity="0.85" stroke="#111" stroke-width="0.8">
      <title>l_small | θ=15.0° | mirror=false</title>
    </path>
    <path d="M 573.864 7.991 L 689.775 39.050 L 669.070 116.324 L 591.796 95.618 L 602.148 56.981 L 563.511 46.628 L 573.864 7.991 Z " fill="#fdd0a2" fill-opacity="0.85" stroke="#111" stroke-width="0.8">
      <title>l_small | θ=15.0° | mirror=false</title>
    </path>
    <path d="M 712.744 7.991 L 828.655 39.050 L 807.950 116.324 L 730.676 95.618 L 741.028 56.981 L 702.391 46.628 L 712.744 7.991 Z " fill="#a1d99b" fill-opacity="0.85" stroke="#111" stroke-width="0.8">
      <title>l_small | θ=15.0° | mirror=false</title>
    </path>
    <path d="M 851.624 7.991 L 967.535 39.050 L 946.830 116.324 L 869.556 95.618 L 879.908 56.981 L 841.271 46.628 L 851.624 7.991 Z " fill="#9ecae1" fill-opacity="0.85" stroke="#111" stroke-width="0.8">
      <title>l_small | θ=15.0° | mirror=false</title>
    </path>
    <path d="M 990.504 7.991 L 1106.415 39.050 L 1085.710 116.324 L 1008.436 95.618 L 1018.788 56.981 L 980.151 46.628 L 990.504 7.991 Z " fill="#fdae6b" fill-opacity="0.85" stroke="#111" stroke-width="0.8">
      <title>l_small | θ=15.0° | mirror=false</title>
    </path>
    <path d="M 1129.384 7.991 L 1245.295 39.050 L 1224.590 116.324 L 1147.316 95.618 L 1157.668 56.981 L 1119.031 46.628 L 1129.384 7.991 Z " fill="#6baed6" fill-opacity="0.85" stroke="#111" stroke-width="0.8">
      <title>l_small | θ=15.0° | mirror=false</title>
    </path>
    <path d="M 1268.264 7.991 L 1384.175 39.050 L 1363.470 116.324 L 1286.196 95.618 L 1296.548 56.981 L 1257.911 46.628 L 1268.264 7.991 Z " fill="#74c476" fill-opacity="0.85" stroke="#111" stroke-width="0.8">
      <title>l_small | θ=15.0° | mirror=false</title>
    </path>
    <path d="M 1486.800 8.000 L 1486.800 78.000 L 1396.800 78.000 L 1396.800 8.000 L 1486.800 8.000 Z " fill="#fd8d3c" fill-opacity="0.85" stroke="#111" stroke-width="0.8">
      <title>r_small | θ=90.0° | mirror=false</title>
    </path>
    <path d="M 1476.880 87.360 L 1476.880 157.360 L 1386.880 157.360 L 1386.880 87.360 L 1476.880 87.360 Z " fill="#9e9ac8" fill-opacity="0.85" stroke="#111" stroke-width="0.8">
      <title>r_small | θ=90.0° | mirror=false</title>
    </path>
    <path d="M 217.040 117.120 L 217.040 187.120 L 127.040 187.120 L 127.040 117.120 L 217.040 117.120 Z " fill="#fdd0a2" fill-opacity="0.85" stroke="#111" stroke-width="0.8">
      <title>r_small | θ=90.0° | mirror=false</title>
    </path>
    <path d="M 355.920 117.120 L 355.920 187.120 L 265.920 187.120 L 265.920 117.120 L 355.920 117.120 Z " fill="#a1d99b" fill-opacity="0.85" stroke="#111" stroke-width="0.8">
      <title>r_small | θ=90.0° | mirror=false</title>
    </path>
    <path d="M 494.800 117.120 L 494.800 187.120 L 404.800 187.120 L 404.800 117.120 L 494.800 117.120 Z " fill="#9ecae1" fill-opacity="0.85" stroke="#111" stroke-width="0.8">
      <title>r_small | θ=90.0° | mirror=false</title>
    </path>
    <path d="M 633.680 117.120 L 633.680 187.120 L 543.680 187.120 L 543.680 117.120 L 633.680 117.120 Z " fill="#fdae6b" fill-opacity="0.85" stroke="#111" stroke-width="0.8">
      <title>r_small | θ=90.0° | mirror=false</title>
    </path>
    <path d="M 772.560 117.120 L 772.560 187.120 L 682.560 187.120 L 682.560 117.120 L 772.560 117.120 Z " fill="#6baed6" fill-opacity="0.85" stroke="#111" stroke-width="0.8">
      <title>r_small | θ=90.0° | mirror=false</title>
    </path>
    <path d="M 911.440 117.120 L 911.440 187.120 L 821.440 187.120 L 821.440 117.120 L 911.440 117.120 Z " fill="#74c476" fill-opacity="0.85" stroke="#111" stroke-width="0.8">
      <title>r_small | θ=90.0° | mirror=false</title>
    </path>
    <path d="M 1050.320 117.120 L 1050.320 187.120 L 960.320 187.120 L 960.320 117.120 L 1050.320 117.120 Z " fill="#fd8d3c" fill-opacity="0.85" stroke="#111" stroke-width="0.8">
      <title>r_small | θ=90.0° | mirror=false</title>
    </path>
    <path d="M 1189.200 117.120 L 1189.200 187.120 L 1099.200 187.120 L 1099.200 117.120 L 1189.200 117.120 Z " fill="#9e9ac8" fill-opacity="0.85" stroke="#111" stroke-width="0.8">
      <title>r_small | θ=90.0° | mirror=false</title>
    </path>
    <path d="M 1328.080 117.120 L 1328.080 187.120 L 1238.080 187.120 L 1238.080 117.120 L 1328.080 117.120 Z " fill="#fdd0a2" fill-opacity="0.85" stroke="#111" stroke-width="0.8">
      <title>r_small | θ=90.0° | mirror=false</title>
    </path>
    <path d="M 98.000 127.040 L 98.000 197.040 L 8.000 197.040 L 8.000 127.040 L 98.000 127.040 Z " fill="#a1d99b" fill-opacity="0.85" stroke="#111" stroke-width="0.8">
      <title>r_small | θ=90.0° | mirror=false</title>
    </path>
    <path d="M 197.200 196.480 L 197.200 266.480 L 107.200 266.480 L 107.200 196.480 L 197.200 196.480 Z " fill="#9ecae1" fill-opacity="0.85" stroke="#111" stroke-width="0.8">
      <title>r_small | θ=90.0° | mirror=false</title>
    </path>
    <path d="M 296.400 196.480 L 296.400 266.480 L 206.400 266.480 L 206.400 196.480 L 296.400 196.480 Z " fill="#fdae6b" fill-opacity="0.85" stroke="#111" stroke-width="0.8">
      <title>r_small | θ=90.0° | mirror=false</title>
    </path>
    <path d="M 395.600 196.480 L 395.600 266.480 L 305.600 266.480 L 305.600 196.480 L 395.600 196.480 Z " fill="#6baed6" fill-opacity="0.85" stroke="#111" stroke-width="0.8">
      <title>r_small | θ=90.0° | mirror=false</title>
    </path>
    <path d="M 494.800 196.480 L 494.800 266.480 L 404.800 266.480 L 404.800 196.480 L 494.800 196.480 Z " fill="#74c476" fill-opacity="0.85" stroke="#111" stroke-width="0.8">
      <title>r_small | θ=90.0° | mirror=false</title>
    </path>
    <path d="M 594.000 196.480 L 594.000 266.480 L 504.000 266.480 L 504.000 196.480 L 594.000 196.480 Z " fill="#fd8d3c" fill-opacity="0.85" stroke="#111" stroke-width="0.8">
      <title>r_small | θ=90.0° | mirror=false</title>
    </path>
    <path d="M 693.200 196.480 L 693.200 266.480 L 603.200 266.480 L 603.200 196.480 L 693.200 196.480 Z " fill="#9e9ac8" fill-opacity="0.85" stroke="#111" stroke-width="0.8">
      <title>r_small | θ=90.0° | mirror=false</title>
    </path>
    <path d="M 703.398 197.479 L 841.271 221.790 L 751.497 327.812 L 703.398 197.479 Z " fill="#fdd0a2" fill-opacity="0.85" stroke="#111" stroke-width="0.8">
      <title>tri_big | θ=10.0° | mirror=false</title>
    </path>
    <path d="M 852.198 197.479 L 990.071 221.790 L 900.297 327.812 L 852.198 197.479 Z " fill="#a1d99b" fill-opacity="0.85" stroke="#111" stroke-width="0.8">
      <title>tri_big | θ=10.0° | mirror=false</title>
    </path>
    <path d="M 1000.998 197.479 L 1138.871 221.790 L 1049.097 327.812 L 1000.998 197.479 Z " fill="#9ecae1" fill-opacity="0.85" stroke="#111" stroke-width="0.8">
      <title>tri_big | θ=10.0° | mirror=false</title>
    </path>
    <path d="M 1149.798 197.479 L 1287.671 221.790 L 1197.897 327.812 L 1149.798 197.479 Z " fill="#fdae6b" fill-opacity="0.85" stroke="#111" stroke-width="0.8">
      <title>tri_big | θ=10.0° | mirror=false</title>
    </path>
    <path d="M 8.998 266.919 L 146.871 291.230 L 57.097 397.252 L 8.998 266.919 Z " fill="#6baed6" fill-opacity="0.85" stroke="#111" stroke-width="0.8">
      <title>tri_big | θ=10.0° | mirror=false</title>
    </path>
    <path d="M 1268.838 266.919 L 1406.711 291.230 L 1316.937 397.252 L 1268.838 266.919 Z " fill="#74c476" fill-opacity="0.85" stroke="#111" stroke-width="0.8">
      <title>tri_big | θ=10.0° | mirror=false</title>
    </path>
    <path d="M 239.353 276.829 L 279.353 346.111 L 158.109 416.111 L 118.109 346.829 L 239.353 276.829 Z " fill="#fd8d3c" fill-opacity="0.85" stroke="#111" stroke-width="0.8">
      <title>r_tall | θ=60.0° | mirror=false</title>
    </path>
    <path d="M 417.913 276.829 L 457.913 346.111 L 336.669 416.111 L 296.669 346.829 L 417.913 276.829 Z " fill="#9e9ac8" fill-opacity="0.85" stroke="#111" stroke-width="0.8">
      <title>r_tall | θ=60.0° | mirror=false</title>
    </path>
    <path d="M 596.473 276.829 L 636.473 346.111 L 515.229 416.111 L 475.229 346.829 L 596.473 276.829 Z " fill="#fdd0a2" fill-opacity="0.85" stroke="#111" stroke-width="0.8">
      <title>r_tall | θ=60.0° | mirror=false</title>
    </path>
    <path d="M 844.473 286.749 L 884.473 356.031 L 763.229 426.031 L 723.229 356.749 L 844.473 286.749 Z " fill="#a1d99b" fill-opacity="0.85" stroke="#111" stroke-width="0.8">
      <title>r_tall | θ=60.0° | mirror=false</title>
    </path>
    <path d="M 1142.073 286.749 L 1182.073 356.031 L 1060.829 426.031 L 1020.829 356.749 L 1142.073 286.749 Z " fill="#9ecae1" fill-opacity="0.85" stroke="#111" stroke-width="0.8">
      <title>r_tall | θ=60.0° | mirror=false</title>
    </path>
    <path d="M 973.433 316.509 L 1013.433 385.791 L 892.189 455.791 L 852.189 386.509 L 973.433 316.509 Z " fill="#fdae6b" fill-opacity="0.85" stroke="#111" stroke-width="0.8">
      <title>r_tall | θ=60.0° | mirror=false</title>
    </path>
    <path d="M 1261.113 326.429 L 1301.113 395.711 L 1179.869 465.711 L 1139.869 396.429 L 1261.113 326.429 Z " fill="#6baed6" fill-opacity="0.85" stroke="#111" stroke-width="0.8">
      <title>r_tall | θ=60.0° | mirror=false</title>
    </path>
    <path d="M 675.833 336.349 L 715.833 405.631 L 594.589 475.631 L 554.589 406.349 L 675.833 336.349 Z " fill="#74c476" fill-opacity="0.85" stroke="#111" stroke-width="0.8">
      <title>r_tall | θ=60.0° | mirror=false</title>
    </path>
    <path d="M 1449.593 336.349 L 1489.593 405.631 L 1368.349 475.631 L 1328.349 406.349 L 1449.593 336.349 Z " fill="#fd8d3c" fill-opacity="0.85" stroke="#111" stroke-width="0.8">
      <title>r_tall | θ=60.0° | mirror=false</title>
    </path>
    <path d="M 288.953 356.189 L 328.953 425.471 L 207.709 495.471 L 167.709 426.189 L 288.953 356.189 Z " fill="#9e9ac8" fill-opacity="0.85" stroke="#111" stroke-width="0.8">
      <title>r_tall | θ=60.0° | mirror=false</title>
    </path>
    <path d="M 467.513 356.189 L 507.513 425.471 L 386.269 495.471 L 346.269 426.189 L 467.513 356.189 Z " fill="#fdd0a2" fill-opacity="0.85" stroke="#111" stroke-width="0.8">
      <title>r_tall | θ=60.0° | mirror=false</title>
    </path>
    <path d="M 844.473 395.869 L 884.473 465.151 L 763.229 535.151 L 723.229 465.869 L 844.473 395.869 Z " fill="#a1d99b" fill-opacity="0.85" stroke="#111" stroke-width="0.8">
      <title>r_tall | θ=60.0° | mirror=false</title>
    </path>
    <path d="M 80.186 394.880 L 193.323 508.017 L 150.897 550.443 L 37.760 437.306 L 80.186 394.880 Z " fill="#9ecae1" fill-opacity="0.85" stroke="#111" stroke-width="0.8">
      <title>bar_wide | θ=45.0° | mirror=false</title>
    </path>
    <path d="M 1002.746 404.800 L 1115.883 517.937 L 1073.457 560.363 L 960.320 447.226 L 1002.746 404.800 Z " fill="#fdae6b" fill-opacity="0.85" stroke="#111" stroke-width="0.8">
      <title>bar_wide | θ=45.0° | mirror=false</title>
    </path>
    <path d="M 1111.866 414.720 L 1225.003 527.857 L 1182.577 570.283 L 1069.440 457.146 L 1111.866 414.720 Z " fill="#6baed6" fill-opacity="0.85" stroke="#111" stroke-width="0.8">
      <title>bar_wide | θ=45.0° | mirror=false</title>
    </path>
    <path d="M 1290.426 414.720 L 1403.563 527.857 L 1361.137 570.283 L 1248.000 457.146 L 1290.426 414.720 Z " fill="#74c476" fill-opacity="0.85" stroke="#111" stroke-width="0.8">
      <title>bar_wide | θ=45.0° | mirror=false</title>
    </path>
    <path d="M 526.586 424.640 L 639.723 537.777 L 597.297 580.203 L 484.160 467.066 L 526.586 424.640 Z " fill="#fd8d3c" fill-opacity="0.85" stroke="#111" stroke-width="0.8">
      <title>bar_wide | θ=45.0° | mirror=false</title>
    </path>
    <path d="M 318.266 444.480 L 431.403 557.617 L 388.977 600.043 L 275.840 486.906 L 318.266 444.480 Z " fill="#9e9ac8" fill-opacity="0.85" stroke="#111" stroke-width="0.8">
      <title>bar_wide | θ=45.0° | mirror=false</title>
    </path>
    <path d="M 933.306 444.480 L 1046.443 557.617 L 1004.017 600.043 L 890.880 486.906 L 933.306 444.480 Z " fill="#fdd0a2" fill-opacity="0.85" stroke="#111" stroke-width="0.8">
      <title>bar_wide | θ=45.0° | mirror=false</title>
    </path>
    <path d="M 655.546 454.400 L 768.683 567.537 L 726.257 609.963 L 613.120 496.826 L 655.546 454.400 Z " fill="#a1d99b" fill-opacity="0.85" stroke="#111" stroke-width="0.8">
      <title>bar_wide | θ=45.0° | mirror=false</title>
    </path>
    <path d="M 1480.866 545.081 L 1376.943 485.081 L 1446.584 444.459 L 1481.225 464.459 L 1480.866 545.081 Z " fill="#9ecae1" fill-opacity="0.85" stroke="#111" stroke-width="0.8">
      <title>trap_small | θ=210.0° | mirror=false</title>
    </path>
    <path d="M 290.466 594.681 L 186.543 534.681 L 256.184 494.059 L 290.825 514.059 L 290.466 594.681 Z " fill="#fdae6b" fill-opacity="0.85" stroke="#111" stroke-width="0.8">
      <title>trap_small | θ=210.0° | mirror=false</title>
    </path>
    <path d="M 895.586 594.681 L 791.663 534.681 L 861.304 494.059 L 895.945 514.059 L 895.586 594.681 Z " fill="#6baed6" fill-opacity="0.85" stroke="#111" stroke-width="0.8">
      <title>trap_small | θ=210.0° | mirror=false</title>
    </path>
    <path d="M 111.906 604.601 L 7.983 544.601 L 77.624 503.979 L 112.265 523.979 L 111.906 604.601 Z " fill="#74c476" fill-opacity="0.85" stroke="#111" stroke-width="0.8">
      <title>trap_small | θ=210.0° | mirror=false</title>
    </path>
    <path d="M 548.386 624.441 L 444.463 564.441 L 514.104 523.819 L 548.745 543.819 L 548.386 624.441 Z " fill="#fd8d3c" fill-opacity="0.85" stroke="#111" stroke-width="0.8">
      <title>trap_small | θ=210.0° | mirror=false</title>
    </path>
    <path d="M 1312.226 624.441 L 1208.303 564.441 L 1277.944 523.819 L 1312.585 543.819 L 1312.226 624.441 Z " fill="#9e9ac8" fill-opacity="0.85" stroke="#111" stroke-width="0.8">
      <title>trap_small | θ=210.0° | mirror=false</title>
    </path>
    <path d="M 1153.506 644.281 L 1049.583 584.281 L 1119.224 543.659 L 1153.865 563.659 L 1153.506 644.281 Z " fill="#fdd0a2" fill-opacity="0.85" stroke="#111" stroke-width="0.8">
      <title>trap_small | θ=210.0° | mirror=false</title>
    </path>
    <path d="M 1461.026 644.281 L 1357.103 584.281 L 1426.744 543.659 L 1461.385 563.659 L 1461.026 644.281 Z " fill="#a1d99b" fill-opacity="0.85" stroke="#111" stroke-width="0.8">
      <title>trap_small | θ=210.0° | mirror=false</title>
    </path>
    <path d="M 230.946 654.201 L 127.023 594.201 L 196.664 553.579 L 231.305 573.579 L 230.946 654.201 Z " fill="#9ecae1" fill-opacity="0.85" stroke="#111" stroke-width="0.8">
      <title>trap_small | θ=210.0° | mirror=false</title>
    </path>
    <path d="M 677.346 664.121 L 573.423 604.121 L 643.064 563.499 L 677.705 583.499 L 677.346 664.121 Z " fill="#fdae6b" fill-opacity="0.85" stroke="#111" stroke-width="0.8">
      <title>trap_small | θ=210.0° | mirror=false</title>
    </path>
    <path d="M 855.906 664.121 L 751.983 604.121 L 821.624 563.499 L 856.265 583.499 L 855.906 664.121 Z " fill="#6baed6" fill-opacity="0.85" stroke="#111" stroke-width="0.8">
      <title>trap_small | θ=210.0° | mirror=false</title>
    </path>
    <path d="M 984.866 674.041 L 880.943 614.041 L 950.584 573.419 L 985.225 593.419 L 984.866 674.041 Z " fill="#74c476" fill-opacity="0.85" stroke="#111" stroke-width="0.8">
      <title>trap_small | θ=210.0° | mirror=false</title>
    </path>
    <path d="M 346.531 709.113 L 275.825 624.848 L 337.108 573.425 L 407.815 657.690 L 346.531 709.113 Z " fill="#fd8d3c" fill-opacity="0.85" stroke="#111" stroke-width="0.8">
      <title>r_medium | θ=230.0° | mirror=false</title>
    </path>
    <path d="M 78.691 728.953 L 7.985 644.688 L 69.268 593.265 L 139.975 677.530 L 78.691 728.953 Z " fill="#9e9ac8" fill-opacity="0.85" stroke="#111" stroke-width="0.8">
      <title>r_medium | θ=230.0° | mirror=false</title>
    </path>
    <path d="M 485.411 728.953 L 414.705 644.688 L 475.988 593.265 L 546.695 677.530 L 485.411 728.953 Z " fill="#fdd0a2" fill-opacity="0.85" stroke="#111" stroke-width="0.8">
      <title>r_medium | θ=230.0° | mirror=false</title>
    </path>
    <path d="M 1239.331 728.953 L 1168.625 644.688 L 1229.908 593.265 L 1300.615 677.530 L 1239.331 728.953 Z " fill="#a1d99b" fill-opacity="0.85" stroke="#111" stroke-width="0.8">
      <title>r_medium | θ=230.0° | mirror=false</title>
    </path>
    <path d="M 1070.691 738.873 L 999.985 654.608 L 1061.268 603.185 L 1131.975 687.450 L 1070.691 738.873 Z " fill="#9ecae1" fill-opacity="0.85" stroke="#111" stroke-width="0.8">
      <title>r_medium | θ=230.0° | mirror=false</title>
    </path>
    <path d="M 1368.291 738.873 L 1297.585 654.608 L 1358.868 603.185 L 1429.575 687.450 L 1368.291 738.873 Z " fill="#fdae6b" fill-opacity="0.85" stroke="#111" stroke-width="0.8">
      <title>r_medium | θ=230.0° | mirror=false</title>
    </path>
    <path d="M 753.251 758.713 L 682.545 674.448 L 743.828 623.025 L 814.535 707.290 L 753.251 758.713 Z " fill="#6baed6" fill-opacity="0.85" stroke="#111" stroke-width="0.8">
      <title>r_medium | θ=230.0° | mirror=false</title>
    </path>
    <path d="M 267.171 778.553 L 196.465 694.288 L 257.748 642.865 L 328.455 727.130 L 267.171 778.553 Z " fill="#74c476" fill-opacity="0.85" stroke="#111" stroke-width="0.8">
      <title>r_medium | θ=230.0° | mirror=false</title>
    </path>
    <path d="M 614.371 778.553 L 543.665 694.288 L 604.948 642.865 L 675.655 727.130 L 614.371 778.553 Z " fill="#fd8d3c" fill-opacity="0.85" stroke="#111" stroke-width="0.8">
      <title>r_medium | θ=230.0° | mirror=false</title>
    </path>
    <path d="M 911.971 778.553 L 841.265 694.288 L 902.548 642.865 L 973.255 727.130 L 911.971 778.553 Z " fill="#9e9ac8" fill-opacity="0.85" stroke="#111" stroke-width="0.8">
      <title>r_medium | θ=230.0° | mirror=false</title>
    </path>
    <path d="M 425.891 798.393 L 355.185 714.128 L 416.468 662.705 L 487.175 746.970 L 425.891 798.393 Z " fill="#fdd0a2" fill-opacity="0.85" stroke="#111" stroke-width="0.8">
      <title>r_medium | θ=230.0° | mirror=false</title>
    </path>
    <path d="M 167.971 808.313 L 97.265 724.048 L 158.548 672.625 L 229.255 756.890 L 167.971 808.313 Z " fill="#a1d99b" fill-opacity="0.85" stroke="#111" stroke-width="0.8">
      <title>r_medium | θ=230.0° | mirror=false</title>
    </path>
    <path d="M 1179.811 808.313 L 1109.105 724.048 L 1170.388 672.625 L 1241.095 756.890 L 1179.811 808.313 Z " fill="#9ecae1" fill-opacity="0.85" stroke="#111" stroke-width="0.8">
      <title>r_medium | θ=230.0° | mirror=false</title>
    </path>
    <path d="M 1318.691 818.233 L 1247.985 733.968 L 1309.268 682.545 L 1379.975 766.810 L 1318.691 818.233 Z " fill="#fdae6b" fill-opacity="0.85" stroke="#111" stroke-width="0.8">
      <title>r_medium | θ=230.0° | mirror=false</title>
    </path>
    <path d="M 1002.181 722.239 L 1058.562 742.760 L 1073.072 790.609 L 1031.201 817.936 L 974.819 797.414 L 960.309 749.566 L 1002.181 722.239 Z " fill="#6baed6" fill-opacity="0.85" stroke="#111" stroke-width="0.8">
      <title>hex_stub | θ=20.0° | mirror=false</title>
    </path>
    <path d="M 49.861 732.159 L 106.242 752.680 L 120.752 800.529 L 78.881 827.856 L 22.499 807.334 L 7.989 759.486 L 49.861 732.159 Z " fill="#74c476" fill-opacity="0.85" stroke="#111" stroke-width="0.8">
      <title>hex_stub | θ=20.0° | mirror=false</title>
    </path>
    <path d="M 813.701 732.159 L 870.082 752.680 L 884.592 800.529 L 842.721 827.856 L 786.339 807.334 L 771.829 759.486 L 813.701 732.159 Z " fill="#fd8d3c" fill-opacity="0.85" stroke="#111" stroke-width="0.8">
      <title>hex_stub | θ=20.0° | mirror=false</title>
    </path>
    <path d="M 516.101 742.079 L 572.482 762.600 L 586.992 810.449 L 545.121 837.776 L 488.739 817.254 L 474.229 769.406 L 516.101 742.079 Z " fill="#9e9ac8" fill-opacity="0.85" stroke="#111" stroke-width="0.8">
      <title>hex_stub | θ=20.0° | mirror=false</title>
    </path>
    <path d="M 684.741 742.079 L 741.122 762.600 L 755.632 810.449 L 713.761 837.776 L 657.379 817.254 L 642.869 769.406 L 684.741 742.079 Z " fill="#fdd0a2" fill-opacity="0.85" stroke="#111" stroke-width="0.8">
      <title>hex_stub | θ=20.0° | mirror=false</title>
    </path>
    <path d="M 327.621 751.999 L 384.002 772.520 L 398.512 820.369 L 356.641 847.696 L 300.259 827.174 L 285.749 779.326 L 327.621 751.999 Z " fill="#a1d99b" fill-opacity="0.85" stroke="#111" stroke-width="0.8">
      <title>hex_stub | θ=20.0° | mirror=false</title>
    </path>
    <path d="M 1460.438 790.775 L 1396.798 727.136 L 1485.187 702.387 L 1460.438 790.775 Z " fill="#9ecae1" fill-opacity="0.85" stroke="#111" stroke-width="0.8">
      <title>tri_small | θ=225.0° | mirror=false</title>
    </path>
    <path d="M 1410.838 870.135 L 1347.198 806.496 L 1435.587 781.747 L 1410.838 870.135 Z " fill="#fdae6b" fill-opacity="0.85" stroke="#111" stroke-width="0.8">
      <title>tri_small | θ=225.0° | mirror=false</title>
    </path>
    <path d="M 240.278 880.055 L 176.638 816.416 L 265.027 791.667 L 240.278 880.055 Z " fill="#6baed6" fill-opacity="0.85" stroke="#111" stroke-width="0.8">
      <title>tri_small | θ=225.0° | mirror=false</title>
    </path>
    <path d="M 1113.238 880.055 L 1049.598 816.416 L 1137.987 791.667 L 1113.238 880.055 Z " fill="#74c476" fill-opacity="0.85" stroke="#111" stroke-width="0.8">
      <title>tri_small | θ=225.0° | mirror=false</title>
    </path>
    <path d="M 1252.118 880.055 L 1188.478 816.416 L 1276.867 791.667 L 1252.118 880.055 Z " fill="#fd8d3c" fill-opacity="0.85" stroke="#111" stroke-width="0.8">
      <title>tri_small | θ=225.0° | mirror=false</title>
    </path>
    <path d="M 924.758 889.975 L 861.118 826.336 L 949.507 801.587 L 924.758 889.975 Z " fill="#9e9ac8" fill-opacity="0.85" stroke="#111" stroke-width="0.8">
      <title>tri_small | θ=225.0° | mirror=false</title>
    </path>
    <path d="M 111.318 909.815 L 47.678 846.176 L 136.067 821.427 L 111.318 909.815 Z " fill="#fdd0a2" fill-opacity="0.85" stroke="#111" stroke-width="0.8">
      <title>tri_small | θ=225.0° | mirror=false</title>
    </path>
    <path d="M 438.678 909.815 L 375.038 846.176 L 463.427 821.427 L 438.678 909.815 Z " fill="#a1d99b" fill-opacity="0.85" stroke="#111" stroke-width="0.8">
      <title>tri_small | θ=225.0° | mirror=false</title>
    </path>
    <path d="M 617.238 909.815 L 553.598 846.176 L 641.987 821.427 L 617.238 909.815 Z " fill="#9ecae1" fill-opacity="0.85" stroke="#111" stroke-width="0.8">
      <title>tri_small | θ=225.0° | mirror=false</title>
    </path>
    <path d="M 746.198 919.735 L 682.558 856.096 L 770.947 831.347 L 746.198 919.735 Z " fill="#fdae6b" fill-opacity="0.85" stroke="#111" stroke-width="0.8">
      <title>tri_small | θ=225.0° | mirror=false</title>
    </path>
    <path d="M 1051.456 832.360 L 1051.456 942.360 L 1012.956 925.860 L 941.456 887.360 L 1012.956 848.860 L 1051.456 832.360 Z " fill="#6baed6" fill-opacity="0.85" stroke="#111" stroke-width="0.8">
      <title>pent_small | θ=90.0° | mirror=false</title>
    </path>
    <path d="M 1358.976 842.280 L 1358.976 952.280 L 1320.476 935.780 L 1248.976 897.280 L 1320.476 858.780 L 1358.976 842.280 Z " fill="#74c476" fill-opacity="0.85" stroke="#111" stroke-width="0.8">
      <title>pent_small | θ=90.0° | mirror=false</title>
    </path>
    <path d="M 327.296 852.200 L 327.296 962.200 L 288.796 945.700 L 217.296 907.200 L 288.796 868.700 L 327.296 852.200 Z " fill="#fd8d3c" fill-opacity="0.85" stroke="#111" stroke-width="0.8">
      <title>pent_small | θ=90.0° | mirror=false</title>
    </path>
    <path d="M 1200.256 852.200 L 1200.256 962.200 L 1161.756 945.700 L 1090.256 907.200 L 1161.756 868.700 L 1200.256 852.200 Z " fill="#9e9ac8" fill-opacity="0.85" stroke="#111" stroke-width="0.8">
      <title>pent_small | θ=90.0° | mirror=false</title>
    </path>
    <path d="M 1487.936 852.200 L 1487.936 962.200 L 1449.436 945.700 L 1377.936 907.200 L 1449.436 868.700 L 1487.936 852.200 Z " fill="#fdd0a2" fill-opacity="0.85" stroke="#111" stroke-width="0.8">
      <title>pent_small | θ=90.0° | mirror=false</title>
    </path>
    <path d="M 555.456 862.120 L 555.456 972.120 L 516.956 955.620 L 445.456 917.120 L 516.956 878.620 L 555.456 862.120 Z " fill="#a1d99b" fill-opacity="0.85" stroke="#111" stroke-width="0.8">
      <title>pent_small | θ=90.0° | mirror=false</title>
    </path>
    <path d="M 624.030 958.438 L 652.500 852.186 L 685.417 878.089 L 744.517 933.782 L 665.488 952.465 L 624.030 958.438 Z " fill="#9ecae1" fill-opacity="0.85" stroke="#111" stroke-width="0.8">
      <title>pent_small | θ=285.0° | mirror=false</title>
    </path>
    <path d="M 8.990 968.358 L 37.460 862.106 L 70.377 888.009 L 129.477 943.702 L 50.448 962.385 L 8.990 968.358 Z " fill="#fdae6b" fill-opacity="0.85" stroke="#111" stroke-width="0.8">
      <title>pent_small | θ=285.0° | mirror=false</title>
    </path>
    <path d="M 336.350 968.358 L 364.820 862.106 L 397.737 888.009 L 456.837 943.702 L 377.808 962.385 L 336.350 968.358 Z " fill="#6baed6" fill-opacity="0.85" stroke="#111" stroke-width="0.8">
      <title>pent_small | θ=285.0° | mirror=false</title>
    </path>
    <path d="M 128.030 988.198 L 156.500 881.946 L 189.417 907.849 L 248.517 963.542 L 169.488 982.225 L 128.030 988.198 Z " fill="#74c476" fill-opacity="0.85" stroke="#111" stroke-width="0.8">
      <title>pent_small | θ=285.0° | mirror=false</title>
    </path>
    <path d="M 853.260 831.360 L 980.539 958.639 L 948.719 990.459 L 821.440 863.180 L 853.260 831.360 Z " fill="#fd8d3c" fill-opacity="0.85" stroke="#111" stroke-width="0.8">
      <title>bar_long | θ=45.0° | mirror=false</title>
    </path>
    <path d="M 1483.105 210.178 L 1309.238 256.766 L 1297.591 213.299 L 1471.458 166.711 L 1483.105 210.178 Z " fill="#9e9ac8" fill-opacity="0.85" stroke="#111" stroke-width="0.8">
      <title>bar_long | θ=165.0° | mirror=false</title>
    </path>
  </g>
</svg>
